<?xml version="1.0" encoding="utf-8"?>
<!-- Generator: Adobe Illustrator 16.0.0, SVG Export Plug-In . SVG Version: 6.00 Build 0)  -->
<!DOCTYPE svg PUBLIC "-//W3C//DTD SVG 1.1//EN" "http://www.w3.org/Graphics/SVG/1.1/DTD/svg11.dtd">
<svg version="1.1" id="logo" xmlns="http://www.w3.org/2000/svg" xmlns:xlink="http://www.w3.org/1999/xlink" x="0px" y="0px"
	 width="52.66px" height="54.338px" viewBox="0 0 52.66 54.338" enable-background="new 0 0 52.66 54.338" xml:space="preserve">
<g>
	<path d="M4.025,50.48c-1.078-3.46,1.677-10.229,1.677-10.229s-3.689,3.521-4.696,5.032C0,46.792,0,54.338,0,54.338
		s7.714,0,10.397-2.18c2.684-2.18,3.354-4.024,3.354-4.024C6.708,51.32,4.025,50.48,4.025,50.48z"/>
	<path d="M38.069,3.188c-7.211,3.187-21.466,21.131-21.466,21.131h-9.56l-4.025,7.044l7.379,2.181l-1.844,4.024l7.379,6.541
		l4.696-1.509l1.845,8.553l6.541-5.031v-10.23C44.442,24.653,49.81,14.927,49.81,14.927C52.661,9.393,52.66,0,52.66,0
		S45.281,0,38.069,3.188z M37.063,20.294c-2.316,0-4.193-1.878-4.193-4.192s1.877-4.192,4.193-4.192
		c2.315,0,4.192,1.878,4.192,4.192S39.379,20.294,37.063,20.294z"/>
</g>
</svg>
