<?xml version="1.0" encoding="utf-8"?>
<!-- Generator: Adobe Illustrator 16.0.0, SVG Export Plug-In . SVG Version: 6.00 Build 0)  -->
<!DOCTYPE svg PUBLIC "-//W3C//DTD SVG 1.1//EN" "http://www.w3.org/Graphics/SVG/1.1/DTD/svg11.dtd">
<svg version="1.1" id="logo" xmlns="http://www.w3.org/2000/svg" xmlns:xlink="http://www.w3.org/1999/xlink" x="0px" y="0px"
	 width="433.48px" height="146.336px" viewBox="0 0 433.48 146.336" enable-background="new 0 0 433.48 146.336"
	 xml:space="preserve">
<rect y="61.338" width="281" height="80"/>
<text transform="matrix(1 0 0 1 8 127.0049)"><tspan x="0" y="0" fill="#FFFFFF" font-family="'Lato-Regular'" font-size="72">Boosted </tspan><tspan x="281.949" y="0" font-family="'Lato-Regular'" font-size="72">Labs</tspan></text>
<g>
	<path d="M291.898,50.48c-1.077-3.46,1.678-10.229,1.678-10.229s-3.689,3.521-4.696,5.032c-1.006,1.509-1.006,9.055-1.006,9.055
		s7.714,0,10.397-2.18s3.354-4.024,3.354-4.024C294.582,51.32,291.898,50.48,291.898,50.48z"/>
	<path d="M325.943,3.188c-7.211,3.187-21.466,21.131-21.466,21.131h-9.56l-4.025,7.044l7.379,2.181l-1.844,4.024l7.379,6.541
		l4.695-1.509l1.845,8.553l6.54-5.031v-10.23c15.43-11.237,20.797-20.964,20.797-20.964C340.535,9.393,340.534,0,340.534,0
		S333.155,0,325.943,3.188z M324.938,20.294c-2.316,0-4.193-1.878-4.193-4.192s1.877-4.192,4.193-4.192
		c2.315,0,4.192,1.878,4.192,4.192S327.253,20.294,324.938,20.294z"/>
</g>
</svg>
